<svg  id='user' width="18" height="21" viewBox="0 0 18 21" fill="none" xmlns="http://www.w3.org/2000/svg">
    <g clip-path="url(#clip0_1_527)">
        <path
            d="M13.7116 5.13097C13.7116 7.68127 11.6095 9.76195 8.99998 9.76195C6.39043 9.76195 4.28834 7.68127 4.28834 5.13097C4.28834 2.58068 6.39043 0.5 8.99998 0.5C11.6095 0.5 13.7116 2.58068 13.7116 5.13097ZM5.24259 11.7782C5.62741 11.7159 6.00916 11.846 6.53164 12.024C6.58571 12.0424 6.64128 12.0613 6.69853 12.0806C7.42658 12.3259 8.20415 12.3558 8.96654 12.3558C9.73344 12.3558 10.5471 12.3254 11.297 12.0773C11.3589 12.0568 11.4189 12.0367 11.4772 12.0171C11.9951 11.8435 12.3745 11.7163 12.7574 11.7782C15.428 12.2101 17.5 14.6297 17.5 17.5806V18.2694C17.5 18.654 17.4993 18.9803 17.463 19.2702C17.4272 19.5563 17.3607 19.766 17.256 19.9242C17.0703 20.2048 16.6375 20.5 15.3835 20.5H2.61654C1.36247 20.5 0.929702 20.2048 0.744011 19.9242C0.639262 19.766 0.572825 19.5563 0.537014 19.2702C0.500739 18.9803 0.5 18.654 0.5 18.2694V17.5806C0.5 14.6297 2.57196 12.2101 5.24259 11.7782Z"
        />
    </g>
    <defs>
        <clipPath id="clip0_1_527">
            <rect width="18" height="21" fill="white" />
        </clipPath>
    </defs>
</svg>
