<svg id='cart' width="15" height="21" viewBox="0 0 15 21" xmlns="http://www.w3.org/2000/svg">
    <g clip-path="url(#clip0_1_529)">
        <path  clip-rule="evenodd"
            d="M3.51007 4.30213C3.51007 1.92613 5.29408 0 7.49476 0C9.69543 0 11.4794 1.92613 11.4794 4.30213V10.6176H10.2831V4.30213C10.2831 2.63948 9.03473 1.29163 7.49476 1.29163C5.95478 1.29163 4.70639 2.63948 4.70639 4.30213V10.6176H3.51007V4.30213Z"
           />
        <path  clip-rule="evenodd"
            d="M13.0886 6.89022H1.98799C1.82789 6.89022 1.69618 7.02634 1.6892 7.19904L1.19663 19.3714C1.1892 19.5551 1.32513 19.7084 1.49543 19.7084H13.5046C13.6741 19.7084 13.8097 19.5564 13.8035 19.3736L13.3875 7.20122C13.3815 7.02764 13.2495 6.89022 13.0886 6.89022ZM1.98799 5.59859C1.18749 5.59859 0.528957 6.27921 0.494017 7.14266L0.00145493 19.315C-0.0357113 20.2335 0.643928 21 1.49543 21H13.5046C14.3521 21 15.0302 20.2403 14.999 19.3259L14.583 7.1536C14.5533 6.28567 13.893 5.59859 13.0886 5.59859H1.98799Z"
          />
    </g>
    <defs>
        <clipPath id="clip0_1_529">
            <rect width="15" height="21"/>
        </clipPath>
    </defs>
</svg>