<svg id='location' width="15" height="21" viewBox="0 0 15 21" xmlns="http://www.w3.org/2000/svg">
    <g clip-path="url(#clip0_1_525)">
        <path
            d="M7.03218 19.0691L7.03219 19.0691L7.06847 19.1209L7.5002 19.7362L7.93206 19.121L7.9679 19.0699L7.55429 18.78L7.9679 19.0699C8.66605 18.0737 9.59611 16.6985 10.5253 15.1807C11.4555 13.6612 12.3789 12.0082 13.0682 10.4549C13.7633 8.88826 14.1951 7.47747 14.1951 6.42319C14.1951 3.17818 11.1454 0.638045 7.5 0.638045C3.85459 0.638045 0.804926 3.17818 0.804926 6.42319C0.804926 7.47585 1.23663 8.88581 1.93183 10.4522C2.62113 12.0053 3.54456 13.6585 4.47475 15.1784C5.40394 16.6966 6.33402 18.0725 7.03218 19.0691ZM14.4725 6.42319C14.4725 7.25417 14.201 8.32092 13.7305 9.52825C13.2636 10.7262 12.6174 12.021 11.9054 13.2952C10.4817 15.8431 8.81635 18.2705 7.85852 19.6129C7.67942 19.8639 7.32088 19.8639 7.14186 19.6129C6.18413 18.2699 4.51864 15.8413 3.0948 13.293C2.38277 12.0186 1.73653 10.7237 1.26958 9.52601C0.798953 8.31893 0.527519 7.2529 0.527519 6.42319C0.527519 3.24084 3.56954 0.527519 7.5 0.527519C11.4305 0.527519 14.4725 3.24084 14.4725 6.42319ZM7.5 9.34515C9.11767 9.34515 10.5531 8.18394 10.5531 6.60837C10.5531 5.03279 9.11767 3.87158 7.5 3.87158C5.88234 3.87158 4.44691 5.03279 4.44691 6.60837C4.44691 8.18394 5.88234 9.34515 7.5 9.34515ZM10.8305 6.60837C10.8305 8.1168 9.40791 9.45568 7.5 9.45568C5.5921 9.45568 4.1695 8.1168 4.1695 6.60837C4.1695 5.09993 5.5921 3.76106 7.5 3.76106C9.40791 3.76106 10.8305 5.09993 10.8305 6.60837Z"
            />
    </g>
    <defs>
        <clipPath id="clip0_1_525">
            <rect width="15" height="21" />
        </clipPath>
    </defs>
</svg>